<svg width="60" height="60" viewBox="0 0 60 60" fill="none" xmlns="http://www.w3.org/2000/svg">
<path d="M27.4589 12.0175L43.7714 15.6176C43.9767 15.6583 44.1616 15.7685 44.2944 15.9293C44.4272 16.0901 44.4999 16.2916 44.5 16.4996V43.5004C44.4999 43.7084 44.4272 43.9099 44.2944 44.0707C44.1616 44.2315 43.9767 44.3417 43.7714 44.3824L27.4589 47.9825C27.3274 48.0086 27.1918 48.0054 27.0618 47.9732C26.9318 47.941 26.8105 47.8805 26.7069 47.7961C26.6032 47.7118 26.5197 47.6056 26.4623 47.4853C26.4049 47.3651 26.3751 47.2336 26.375 47.1005V12.8995C26.3751 12.7664 26.4049 12.6349 26.4623 12.5147C26.5197 12.3944 26.6032 12.2882 26.7069 12.2039C26.8105 12.1195 26.9318 12.059 27.0618 12.0268C27.1918 11.9946 27.3274 11.9914 27.4589 12.0175ZM24.5625 15.5996V44.4004H16.8594C16.5309 44.4004 16.2135 44.2823 15.9659 44.0678C15.7184 43.8534 15.5574 43.5572 15.5127 43.234L15.5 43.0504V16.9496C15.5 16.6234 15.619 16.3082 15.8349 16.0623C16.0508 15.8164 16.3491 15.6565 16.6745 15.6122L16.8594 15.5996H24.5625ZM31.8125 28.1999C31.3318 28.1999 30.8708 28.3896 30.5309 28.7272C30.191 29.0647 30 29.5226 30 30C30 30.4774 30.191 30.9353 30.5309 31.2728C30.8708 31.6104 31.3318 31.8001 31.8125 31.8001C32.2932 31.8001 32.7542 31.6104 33.0941 31.2728C33.434 30.9353 33.625 30.4774 33.625 30C33.625 29.5226 33.434 29.0647 33.0941 28.7272C32.7542 28.3896 32.2932 28.1999 31.8125 28.1999Z" fill="black"/>
</svg>
